<?xml version="1.0" encoding="UTF-8"?>
<svg width="681px" height="640px" viewBox="0 0 681 640" version="1.1" xmlns="http://www.w3.org/2000/svg" xmlns:xlink="http://www.w3.org/1999/xlink">
    <title>callbag</title>
    <defs>
        <rect id="path-1" x="0" y="0" width="392" height="544" rx="32"></rect>
        <rect id="path-3" x="0" y="0" width="296" height="296" rx="32"></rect>
        <path d="M0.5,0.5 L112.5,0.5 L112.5,42 C112.5,59.673112 98.173112,74 80.5,74 L32.5,74 C14.826888,74 0.5,59.673112 0.5,42 L0.5,0.5 L0.5,0.5 Z" id="path-5"></path>
        <path d="M120,0 C115.581722,8.11624501e-16 112,3.581722 112,8 L112,59.5 C112,68.336556 104.836556,75.5 96,75.5 L16,75.5 C7.163444,75.5 1.082166e-15,68.336556 0,59.5 L0,32 C-2.164332e-15,14.326888 14.326888,3.24649801e-15 32,0 L120,0 L120,0 Z" id="path-7"></path>
        <path d="M0,0.5 L112,0.5 L112,42 C112,59.673112 97.673112,74 80,74 L32,74 C14.326888,74 2.164332e-15,59.673112 0,42 L0,0.5 L0,0.5 Z" id="path-9"></path>
        <path d="M120,0 C115.581722,8.11624501e-16 112,3.581722 112,8 L112,59.5 C112,68.336556 104.836556,75.5 96,75.5 L16,75.5 C7.163444,75.5 1.082166e-15,68.336556 0,59.5 L0,32 C-2.164332e-15,14.326888 14.326888,3.24649801e-15 32,0 L120,0 L120,0 Z" id="path-11"></path>
        <path d="M0,0 L296,0 L296,36.5 C296,54.173112 281.673112,68.5 264,68.5 L32,68.5 C14.326888,68.5 2.164332e-15,54.173112 0,36.5 L0,0 L0,0 Z" id="path-13"></path>
        <path d="M304,0 C299.581722,8.11624501e-16 296,3.581722 296,8 L296,59.5 C296,68.336556 288.836556,75.5 280,75.5 L16,75.5 C7.163444,75.5 1.082166e-15,68.336556 0,59.5 L0,32 C-2.164332e-15,14.326888 14.326888,3.24649801e-15 32,0 L304,0 L304,0 Z" id="path-15"></path>
    </defs>
    <g id="misc" stroke="none" stroke-width="1" fill="none" fill-rule="evenodd">
        <g id="callbag-react" transform="translate(-171.000000, -161.000000)">
            <g id="callbag" transform="translate(171.000000, 161.000000)">
                <g id="lift" transform="translate(402.500000, 145.183283)">
                    <path d="M0,22.8167169 L84.5,22.8167169 C198.833333,76.1500503 256,160.15005 256,274.816717 C256,389.483384 198.833333,438.816717 84.5,422.816717 L0,422.816717 C120.666667,412.816717 181.333333,363.483384 182,274.816717 C182.666667,186.15005 122,102.15005 0,22.8167169 Z" id="Path-10" fill="#1D2D50"></path>
                    <path d="M94.6960211,-2.55795385e-13 C242.793342,71.141438 278,182.816717 278,274.816717 C278,366.816717 241.366244,445.656929 93.9876658,446.80094 L89.5,446.818275 L89.5,422.818275 C227.856398,422.818275 254,345.816717 254,274.816717 C254,203.816717 226.248946,90.8462304 88.4996288,23.6642214 L84.3039789,21.6334339 L94.6960211,-2.55795385e-13 Z" id="Path-10-Copy" fill="#133B5C" fill-rule="nonzero"></path>
                </g>
                <path d="M292,0 C345.019336,0 388,42.980664 388,96 C388,149.019336 345.019336,192 292,192 C238.980664,192 196,149.019336 196,96 C196,42.980664 238.980664,0 292,0 Z M292,32 C256.653776,32 228,60.653776 228,96 C228,131.346224 256.653776,160 292,160 C327.346224,160 356,131.346224 356,96 C356,60.653776 327.346224,32 292,32 Z" id="handle" fill="#133B5C"></path>
                <g id="body" transform="translate(32.000000, 96.000000)">
                    <rect id="Rectangle" fill="#133B5C" x="128" y="0" width="392" height="544" rx="32"></rect>
                    <g id="shade">
                        <mask id="mask-2" fill="white">
                            <use xlink:href="#path-1"></use>
                        </mask>
                        <use id="Mask" fill="#1E5F74" xlink:href="#path-1"></use>
                        <polygon fill-opacity="0.12" fill="#1D2D50" mask="url(#mask-2)" points="80.5 544 0 492 264 201.5 38 151.5 316 48 392 54 392 544"></polygon>
                    </g>
                    <g id="zipper" transform="translate(424.000000, 0.000000)" stroke="#E3B688">
                        <path d="M0,0 C17.673112,0 32,14.326888 32,32 L32,184" id="Path"></path>
                        <line x1="29.5" y1="183.5" x2="34.5" y2="183.5" id="Line-Copy-13" stroke-linecap="square"></line>
                        <line x1="29.5" y1="179.5" x2="34.5" y2="179.5" id="Line-Copy-17" stroke-linecap="square"></line>
                        <line x1="29.5" y1="175.5" x2="34.5" y2="175.5" id="Line-Copy-18" stroke-linecap="square"></line>
                        <line x1="29.5" y1="171.5" x2="34.5" y2="171.5" id="Line-Copy-19" stroke-linecap="square"></line>
                        <line x1="29.5" y1="167.5" x2="34.5" y2="167.5" id="Line-Copy-20" stroke-linecap="square"></line>
                        <line x1="29.5" y1="163.5" x2="34.5" y2="163.5" id="Line-Copy-21" stroke-linecap="square"></line>
                        <line x1="29.5" y1="159.5" x2="34.5" y2="159.5" id="Line-Copy-22" stroke-linecap="square"></line>
                        <line x1="29.5" y1="155.5" x2="34.5" y2="155.5" id="Line-Copy-23" stroke-linecap="square"></line>
                        <line x1="29.5" y1="151.5" x2="34.5" y2="151.5" id="Line-Copy-24" stroke-linecap="square"></line>
                        <line x1="29.5" y1="147.5" x2="34.5" y2="147.5" id="Line-Copy-25" stroke-linecap="square"></line>
                        <line x1="29.5" y1="143.5" x2="34.5" y2="143.5" id="Line-Copy-26" stroke-linecap="square"></line>
                        <line x1="29.5" y1="139.5" x2="34.5" y2="139.5" id="Line-Copy-27" stroke-linecap="square"></line>
                        <line x1="29.5" y1="135.5" x2="34.5" y2="135.5" id="Line-Copy-28" stroke-linecap="square"></line>
                        <line x1="29.5" y1="131.5" x2="34.5" y2="131.5" id="Line-Copy-29" stroke-linecap="square"></line>
                        <line x1="29.5" y1="127.5" x2="34.5" y2="127.5" id="Line-Copy-30" stroke-linecap="square"></line>
                        <line x1="29.5" y1="123.5" x2="34.5" y2="123.5" id="Line-Copy-31" stroke-linecap="square"></line>
                        <line x1="29.5" y1="119.5" x2="34.5" y2="119.5" id="Line-Copy-32" stroke-linecap="square"></line>
                        <line x1="29.5" y1="115.5" x2="34.5" y2="115.5" id="Line-Copy-33" stroke-linecap="square"></line>
                        <line x1="29.5" y1="111.5" x2="34.5" y2="111.5" id="Line-Copy-34" stroke-linecap="square"></line>
                        <line x1="29.5" y1="107.5" x2="34.5" y2="107.5" id="Line-Copy-35" stroke-linecap="square"></line>
                        <line x1="29.5" y1="103.5" x2="34.5" y2="103.5" id="Line-Copy-36" stroke-linecap="square"></line>
                        <line x1="29.5" y1="99.5" x2="34.5" y2="99.5" id="Line-Copy-37" stroke-linecap="square"></line>
                        <line x1="29.5" y1="95.5" x2="34.5" y2="95.5" id="Line-Copy-38" stroke-linecap="square"></line>
                        <line x1="29.5" y1="91.5" x2="34.5" y2="91.5" id="Line-Copy-39" stroke-linecap="square"></line>
                        <line x1="29.5" y1="87.5" x2="34.5" y2="87.5" id="Line-Copy-40" stroke-linecap="square"></line>
                        <line x1="29.5" y1="83.5" x2="34.5" y2="83.5" id="Line-Copy-41" stroke-linecap="square"></line>
                        <line x1="29.5" y1="79.5" x2="34.5" y2="79.5" id="Line-Copy-42" stroke-linecap="square"></line>
                        <line x1="29.5" y1="75.5" x2="34.5" y2="75.5" id="Line-Copy-43" stroke-linecap="square"></line>
                        <line x1="29.5" y1="71.5" x2="34.5" y2="71.5" id="Line-Copy-44" stroke-linecap="square"></line>
                        <line x1="29.5" y1="67.5" x2="34.5" y2="67.5" id="Line-Copy-45" stroke-linecap="square"></line>
                        <line x1="29.5" y1="63.5" x2="34.5" y2="63.5" id="Line-Copy-46" stroke-linecap="square"></line>
                        <line x1="29.5" y1="59.5" x2="34.5" y2="59.5" id="Line-Copy-47" stroke-linecap="square"></line>
                        <line x1="29.5" y1="55.5" x2="34.5" y2="55.5" id="Line-Copy-48" stroke-linecap="square"></line>
                        <line x1="29.5" y1="51.5" x2="34.5" y2="51.5" id="Line-Copy-49" stroke-linecap="square"></line>
                        <line x1="29.5" y1="47.5" x2="34.5" y2="47.5" id="Line-Copy-50" stroke-linecap="square"></line>
                        <line x1="29.5" y1="43.5" x2="34.5" y2="43.5" id="Line-Copy-51" stroke-linecap="square"></line>
                        <line x1="29.5" y1="39.5" x2="34.5" y2="39.5" id="Line-Copy-52" stroke-linecap="square"></line>
                        <line x1="29.5" y1="35.5" x2="34.5" y2="35.5" id="Line-Copy-53" stroke-linecap="square"></line>
                        <line x1="29.5" y1="31.5" x2="34.5" y2="31.5" id="Line-Copy-54" stroke-linecap="square"></line>
                        <line x1="29.5" y1="27.5" x2="34.5" y2="27.5" id="Line-Copy-55" stroke-linecap="square"></line>
                        <line x1="28.5" y1="23.5" x2="33.5" y2="23.5" id="Line-Copy-56" stroke-linecap="square"></line>
                        <line x1="27.5" y1="19.5" x2="32.5" y2="19.5" id="Line-Copy-57" stroke-linecap="square"></line>
                        <line x1="24.5" y1="15.5" x2="29.5" y2="15.5" id="Line-Copy-58" stroke-linecap="square"></line>
                        <line x1="22.5" y1="12.5" x2="27.5" y2="12.5" id="Line-Copy-59" stroke-linecap="square"></line>
                        <line x1="19.5" y1="9.5" x2="24.5" y2="9.5" id="Line-Copy-60" stroke-linecap="square"></line>
                        <line x1="17.5" y1="7.5" x2="22.5" y2="7.5" id="Line-Copy-61" stroke-linecap="square"></line>
                        <line x1="15.5" y1="5.5" x2="20.5" y2="5.5" id="Line-Copy-62" stroke-linecap="square"></line>
                        <line x1="12.5" y1="3.5" x2="17.5" y2="3.5" id="Line-Copy-63" stroke-linecap="square"></line>
                        <line x1="9.5" y1="2.5" x2="14.5" y2="2.5" id="Line-Copy-64" stroke-linecap="square"></line>
                        <line x1="6.5" y1="1.5" x2="11.5" y2="1.5" id="Line-Copy-65" stroke-linecap="square"></line>
                    </g>
                    <g id="zipper-handle" transform="translate(457.000000, 189.500000) scale(-1, 1) translate(-457.000000, -189.500000) translate(454.000000, 182.000000)">
                        <path d="M2,5 L4,5 C5.1045695,5 6,5.8954305 6,7 L6,13 C6,14.1045695 5.1045695,15 4,15 L2,15 L2,15 L2,5 Z" id="Rectangle" fill="#616161"></path>
                        <rect id="Rectangle-Copy-13" fill="#212121" x="0" y="5" width="4" height="10" rx="2"></rect>
                        <path d="M2,0 L4,0 C5.1045695,-2.02906125e-16 6,0.8954305 6,2 C6,3.1045695 5.1045695,4 4,4 L2,4 L2,4 L2,0 Z" id="Rectangle" fill="#616161"></path>
                        <rect id="Rectangle-Copy-8" fill="#212121" x="0" y="0" width="4" height="4" rx="2"></rect>
                    </g>
                </g>
                <g id="front-compartment" transform="translate(0.000000, 296.000000)">
                    <rect id="Rectangle-Copy-2" fill="#133B5C" x="80" y="0" width="296" height="296" rx="32"></rect>
                    <g id="zipper" transform="translate(312.000000, 0.000000)" stroke="#E3B688">
                        <line x1="29.5" y1="142.5" x2="34.5" y2="142.5" id="Line-Copy-14" stroke-linecap="square"></line>
                        <line x1="29.5" y1="138.5" x2="34.5" y2="138.5" id="Line-Copy-66" stroke-linecap="square"></line>
                        <line x1="29.5" y1="134.5" x2="34.5" y2="134.5" id="Line-Copy-67" stroke-linecap="square"></line>
                        <line x1="29.5" y1="130.5" x2="34.5" y2="130.5" id="Line-Copy-68" stroke-linecap="square"></line>
                        <line x1="29.5" y1="126.5" x2="34.5" y2="126.5" id="Line-Copy-69" stroke-linecap="square"></line>
                        <line x1="29.5" y1="122.5" x2="34.5" y2="122.5" id="Line-Copy-70" stroke-linecap="square"></line>
                        <line x1="29.5" y1="118.5" x2="34.5" y2="118.5" id="Line-Copy-71" stroke-linecap="square"></line>
                        <line x1="29.5" y1="114.5" x2="34.5" y2="114.5" id="Line-Copy-72" stroke-linecap="square"></line>
                        <line x1="29.5" y1="110.5" x2="34.5" y2="110.5" id="Line-Copy-73" stroke-linecap="square"></line>
                        <line x1="29.5" y1="106.5" x2="34.5" y2="106.5" id="Line-Copy-74" stroke-linecap="square"></line>
                        <line x1="29.5" y1="102.5" x2="34.5" y2="102.5" id="Line-Copy-75" stroke-linecap="square"></line>
                        <line x1="29.5" y1="98.5" x2="34.5" y2="98.5" id="Line-Copy-76" stroke-linecap="square"></line>
                        <line x1="29.5" y1="94.5" x2="34.5" y2="94.5" id="Line-Copy-77" stroke-linecap="square"></line>
                        <line x1="29.5" y1="90.5" x2="34.5" y2="90.5" id="Line-Copy-78" stroke-linecap="square"></line>
                        <line x1="29.5" y1="86.5" x2="34.5" y2="86.5" id="Line-Copy-79" stroke-linecap="square"></line>
                        <line x1="29.5" y1="82.5" x2="34.5" y2="82.5" id="Line-Copy-80" stroke-linecap="square"></line>
                        <line x1="29.5" y1="78.5" x2="34.5" y2="78.5" id="Line-Copy-81" stroke-linecap="square"></line>
                        <line x1="29.5" y1="74.5" x2="34.5" y2="74.5" id="Line-Copy-82" stroke-linecap="square"></line>
                        <line x1="29.5" y1="70.5" x2="34.5" y2="70.5" id="Line-Copy-83" stroke-linecap="square"></line>
                        <line x1="29.5" y1="66.5" x2="34.5" y2="66.5" id="Line-Copy-84" stroke-linecap="square"></line>
                        <line x1="29.5" y1="62.5" x2="34.5" y2="62.5" id="Line-Copy-85" stroke-linecap="square"></line>
                        <line x1="29.5" y1="58.5" x2="34.5" y2="58.5" id="Line-Copy-86" stroke-linecap="square"></line>
                        <line x1="29.5" y1="54.5" x2="34.5" y2="54.5" id="Line-Copy-87" stroke-linecap="square"></line>
                        <line x1="29.5" y1="50.5" x2="34.5" y2="50.5" id="Line-Copy-88" stroke-linecap="square"></line>
                        <line x1="29.5" y1="46.5" x2="34.5" y2="46.5" id="Line-Copy-89" stroke-linecap="square"></line>
                        <line x1="29.5" y1="42.5" x2="34.5" y2="42.5" id="Line-Copy-90" stroke-linecap="square"></line>
                        <line x1="29.5" y1="38.5" x2="34.5" y2="38.5" id="Line-Copy-91" stroke-linecap="square"></line>
                        <line x1="29.5" y1="34.5" x2="34.5" y2="34.5" id="Line-Copy-92" stroke-linecap="square"></line>
                        <line x1="29.5" y1="30.5" x2="34.5" y2="30.5" id="Line-Copy-93" stroke-linecap="square"></line>
                        <line x1="29.5" y1="26.5" x2="34.5" y2="26.5" id="Line-Copy-94" stroke-linecap="square"></line>
                        <line x1="28.5" y1="22.5" x2="33.5" y2="22.5" id="Line-Copy-95" stroke-linecap="square"></line>
                        <line x1="26.5" y1="18.5" x2="31.5" y2="18.5" id="Line-Copy-96" stroke-linecap="square"></line>
                        <line x1="24.5" y1="15.5" x2="29.5" y2="15.5" id="Line-Copy-97" stroke-linecap="square"></line>
                        <line x1="22.5" y1="12.5" x2="27.5" y2="12.5" id="Line-Copy-98" stroke-linecap="square"></line>
                        <line x1="20.5" y1="9.5" x2="25.5" y2="9.5" id="Line-Copy-99" stroke-linecap="square"></line>
                        <line x1="17.5" y1="7.5" x2="22.5" y2="7.5" id="Line-Copy-100" stroke-linecap="square"></line>
                        <line x1="14.5" y1="5.5" x2="19.5" y2="5.5" id="Line-Copy-101" stroke-linecap="square"></line>
                        <line x1="11.5" y1="3.5" x2="16.5" y2="3.5" id="Line-Copy-102" stroke-linecap="square"></line>
                        <line x1="9.5" y1="2.5" x2="14.5" y2="2.5" id="Line-Copy-103" stroke-linecap="square"></line>
                        <line x1="7.5" y1="1.5" x2="12.5" y2="1.5" id="Line-Copy-104" stroke-linecap="square"></line>
                        <path d="M0,0 C17.673112,0 32,14.326888 32,32 L32,142.5 L32,142.5" id="Path"></path>
                    </g>
                    <g id="zipper-handle" transform="translate(345.000000, 148.500000) scale(-1, 1) translate(-345.000000, -148.500000) translate(342.000000, 141.000000)">
                        <path d="M2,5 L4,5 C5.1045695,5 6,5.8954305 6,7 L6,13 C6,14.1045695 5.1045695,15 4,15 L2,15 L2,15 L2,5 Z" id="Rectangle" fill="#616161"></path>
                        <rect id="Rectangle-Copy-13" fill="#212121" x="0" y="5" width="4" height="10" rx="2"></rect>
                        <path d="M2,0 L4,0 C5.1045695,-2.02906125e-16 6,0.8954305 6,2 C6,3.1045695 5.1045695,4 4,4 L2,4 L2,4 L2,0 Z" id="Rectangle" fill="#616161"></path>
                        <rect id="Rectangle-Copy-8" fill="#212121" x="0" y="0" width="4" height="4" rx="2"></rect>
                    </g>
                    <g id="shade" transform="translate(16.000000, 0.000000)">
                        <mask id="mask-4" fill="white">
                            <use xlink:href="#path-3"></use>
                        </mask>
                        <use id="Mask" fill="#1E5F74" xlink:href="#path-3"></use>
                        <polygon fill-opacity="0.12" fill="#1D2D50" mask="url(#mask-4)" points="4.5 264 93 317.5 305 322 313 41.5 181 8 164.5 12.5 155 18 120.5 9 110 12.5 104 18.5 104.5 48.5 76 66.5 87 86.5 100 92.5 104.5 97.5 104 126 107 132.5 177 161 164.5 183 118.5 163.5"></polygon>
                    </g>
                    <g id="small-pocket" transform="translate(0.000000, 160.000000)">
                        <rect id="Rectangle-Copy-9" fill="#133B5C" x="40" y="0" width="112" height="112" rx="32"></rect>
                        <rect id="Rectangle-Copy-11" fill="#1D2D50" x="8" y="0" width="112" height="112" rx="32"></rect>
                        <g id="shade" transform="translate(7.500000, 38.000000)">
                            <mask id="mask-6" fill="white">
                                <use xlink:href="#path-5"></use>
                            </mask>
                            <use id="Mask" fill="#1E5F74" xlink:href="#path-5"></use>
                            <polygon fill-opacity="0.12" fill="#1D2D50" mask="url(#mask-6)" points="-1 33.5 80.5 81 122.5 66 122.5 4.5 94 -8 8.5 6"></polygon>
                        </g>
                        <g id="shade">
                            <mask id="mask-8" fill="white">
                                <use xlink:href="#path-7"></use>
                            </mask>
                            <use id="Mask" fill="#1E5F74" xlink:href="#path-7"></use>
                            <polygon fill-opacity="0.12" fill="#1D2D50" mask="url(#mask-8)" points="47.5 62.5 60 40.5 128 75 122 102.5"></polygon>
                        </g>
                        <g id="button-copy" transform="translate(40.000000, 39.500000)">
                            <path d="M12,0 L16,0 C22.627417,-1.21743675e-15 28,5.372583 28,12 C28,18.627417 22.627417,24 16,24 L12,24 L12,24 L12,0 Z" id="Rectangle" fill="#1D2D50"></path>
                            <rect id="Rectangle-Copy-17" fill="#133B5C" x="0" y="0" width="24" height="24" rx="12"></rect>
                        </g>
                    </g>
                    <g id="small-pocket" transform="translate(136.000000, 160.000000)">
                        <rect id="Rectangle-Copy-10" fill="#133B5C" x="40" y="0" width="112" height="112" rx="32"></rect>
                        <rect id="Rectangle-Copy-12" fill="#1D2D50" x="8" y="0" width="112" height="112" rx="32"></rect>
                        <g id="shade" transform="translate(8.000000, 38.000000)">
                            <mask id="mask-10" fill="white">
                                <use xlink:href="#path-9"></use>
                            </mask>
                            <use id="Mask" fill="#1E5F74" xlink:href="#path-9"></use>
                            <polygon fill-opacity="0.12" fill="#1D2D50" mask="url(#mask-10)" points="0 35 95 81 144 13.5 95 -8 0 -3.5"></polygon>
                        </g>
                        <g id="shade">
                            <mask id="mask-12" fill="white">
                                <use xlink:href="#path-11"></use>
                            </mask>
                            <use id="Mask" fill="#1E5F74" xlink:href="#path-11"></use>
                            <polygon fill-opacity="0.12" fill="#1D2D50" mask="url(#mask-12)" points="47.5 62 60 41 117.5 65.5 101.5 87.5"></polygon>
                        </g>
                        <g id="button" transform="translate(40.000000, 39.500000)">
                            <path d="M12,0 L16,0 C22.627417,-1.21743675e-15 28,5.372583 28,12 C28,18.627417 22.627417,24 16,24 L12,24 L12,24 L12,0 Z" id="Rectangle" fill="#1D2D50"></path>
                            <rect id="Rectangle-Copy-17" fill="#133B5C" x="0" y="0" width="24" height="24" rx="12"></rect>
                        </g>
                    </g>
                    <g id="logo" transform="translate(88.000000, 8.000000)" fill-rule="nonzero">
                        <path d="M111.857872,1.62525067 C117.942004,5.12271732 120.684921,14.1536613 119.963332,25.9667208 L119.896219,26.9438655 L119.896219,26.9438655 L119.813488,27.9332004 C119.722943,28.9285172 119.608948,29.9416101 119.471434,30.9709515 L119.326079,32.0056524 L119.326079,32.0056524 L119.165029,33.0508461 L119.165029,33.0508461 L118.988269,34.1061931 L118.988269,34.1061931 L118.795785,35.1713539 C118.69561,35.7063312 118.589531,36.2448613 118.477542,36.7867534 C118.263773,37.820795 118.023347,38.8727222 117.761389,39.9384469 C119.355175,40.397084 120.90308,40.8820386 122.396902,41.3945879 C122.735002,41.5106109 123.070502,41.6280624 123.403355,41.7469144 L124.393926,42.1076437 L124.393926,42.1076437 L125.368335,42.476607 L125.368335,42.476607 L126.326302,42.8536355 L126.326302,42.8536355 L127.267546,43.2385604 C127.42301,43.3033632 127.577767,43.368488 127.731809,43.4339313 L128.647442,43.8303843 C129.705572,44.2973058 130.728127,44.7794876 131.713106,45.2757236 L132.548124,45.7044824 L132.548124,45.7044824 L133.364456,46.1399561 L133.364456,46.1399561 L134.161823,46.5819759 C142.827514,51.4795777 148,57.5346564 148,63.7362229 C148,67.7741198 145.84509,71.7717759 141.9822,75.4450907 L141.432153,75.9555127 C139.28149,77.9038421 136.64812,79.7555968 133.600438,81.4673008 L132.796037,81.9106267 L132.796037,81.9106267 L131.973109,82.3474272 C131.834425,82.4196739 131.694981,82.4916417 131.554782,82.5633268 L130.704569,82.9900175 L130.704569,82.9900175 L129.836504,83.4097541 L129.836504,83.4097541 L128.950856,83.8223649 C128.056508,84.2313556 127.136189,84.6294005 126.191116,85.0157277 L125.237837,85.3981203 C123.795674,85.9657647 122.298724,86.5064654 120.751084,87.0176175 C119.878833,87.3058307 118.984283,87.5830567 118.073072,87.8515967 C118.39834,89.154688 118.687979,90.4350396 118.936864,91.6883074 L119.139112,92.7428862 C119.268616,93.4431548 119.387469,94.1377744 119.495717,94.8262591 L119.65014,95.8543241 C119.674553,96.0248812 119.698305,96.1950396 119.721396,96.3647918 L119.852018,97.3783698 C119.872468,97.5464668 119.892259,97.7141424 119.911392,97.8813889 L120.018287,98.8796597 L120.018287,98.8796597 L120.109406,99.86727 C120.12328,100.030963 120.136498,100.194197 120.14906,100.356964 L120.216577,101.3279 C120.395572,104.223533 120.362707,106.962948 120.12201,109.501858 L120.034085,110.340674 C119.173588,117.822093 116.446627,123.454675 111.961937,126.04266 C105.156045,129.97028 94.5324044,126.812029 83.4517859,118.298551 L82.6302141,117.658154 C81.8079077,117.008015 80.9835492,116.328727 80.1585045,115.620992 C78.8661482,114.512086 77.5668728,113.32985 76.2655454,112.080671 C75.2615479,113.048025 74.2593444,113.97092 73.2607288,114.841181 L72.436302,115.550023 L72.436302,115.550023 L71.6112534,116.240442 C70.6484681,117.035123 69.6851163,117.791868 68.7236581,118.509544 L67.9000722,119.1151 L67.9000722,119.1151 L67.077758,119.701362 C56.5343584,127.100576 46.3901682,129.694133 39.9193881,125.974439 C34.0323093,122.589644 31.3205652,114.100157 31.8963952,102.936366 L31.9538058,101.972977 C31.9756282,101.649702 32.0001369,101.3243 32.0273346,100.996829 L32.1169972,100.008263 C32.214732,99.0136013 32.336691,98.000822 32.482945,96.9714558 L32.6372999,95.9366173 C32.6914528,95.589866 32.7483076,95.2413283 32.8078672,94.891061 L32.9946626,93.8351269 C33.0271483,93.658292 33.0603109,93.4810388 33.0941507,93.3033745 C33.4117288,91.6351614 33.7900543,89.92479 34.225026,88.179413 C32.8849951,87.7961509 31.5846936,87.3924482 30.3315546,86.9654936 C27.7976051,86.1021343 25.401856,85.1493334 23.1647251,84.1214724 L22.2783808,83.7063589 C21.6931889,83.4269933 21.1194701,83.1424264 20.5576116,82.8529309 L19.7237675,82.4150255 C19.5862922,82.3414365 19.4495702,82.2675481 19.3136077,82.1933644 L18.5069937,81.7447532 C18.2411924,81.5940579 17.9784771,81.4422157 17.7188962,81.2892607 L16.9496056,80.8270912 C8.84517397,75.8624007 4,69.7930937 4,63.7362229 C4,57.5154079 9.07860541,51.4559882 17.6432723,46.5736324 L18.4437118,46.1263262 L18.4437118,46.1263262 L19.2636754,45.6858837 C19.6784919,45.467408 20.1005255,45.2515728 20.5296197,45.038478 L21.3971758,44.6159717 C21.6894683,44.4763739 21.9848525,44.3380237 22.2832819,44.2009505 L23.1876595,43.793592 C23.3398963,43.7263474 23.4928828,43.6594294 23.6466132,43.5928417 L24.5778762,43.1973101 C24.8912419,43.0668074 25.2075369,42.9376558 25.5267149,42.8098849 L26.4928509,42.4307436 C26.6552995,42.3682536 26.8184573,42.3061162 26.9823184,42.244335 L27.9738785,41.8779526 L27.9738785,41.8779526 L28.98204,41.520298 L28.98204,41.520298 C30.6860425,40.9282855 32.4669404,40.3717887 34.3116615,39.8497855 C33.9084732,38.2359959 33.5519348,36.648779 33.2469163,35.0945228 C33.1774963,34.7408658 33.1106757,34.38877 33.0464532,34.0382917 L32.8615795,32.9917655 C32.832066,32.8181719 32.8032017,32.6449968 32.7749867,32.4722471 L32.6134852,31.4409107 C32.5366284,30.9278514 32.4656116,30.4187477 32.4004315,29.9137894 L32.2778523,28.9094561 L32.2778523,28.9094561 L32.170831,27.9165143 L32.170831,27.9165143 L32.0793613,26.9353016 C32.0375133,26.4476836 32.0014949,25.9645905 31.9713024,25.4862121 L31.9186842,24.5357976 C31.395408,13.5222785 34.0427641,5.14448279 39.8158356,1.81304921 C44.7283212,-1.0218494 51.6923806,-0.16658471 59.4127816,3.70932844 L60.200464,4.11387606 C61.5174454,4.80539022 62.8548932,5.58302771 64.2065008,6.44352862 L65.0191141,6.9697467 L65.0191141,6.9697467 L65.834823,7.51569553 L65.834823,7.51569553 L66.6533249,8.08121864 C67.4731224,8.65647672 68.2966552,9.26086149 69.1225611,9.89366883 L69.9492076,10.5359243 L69.9492076,10.5359243 L70.7771335,11.1969716 L70.7771335,11.1969716 L71.606036,11.8766544 L71.606036,11.8766544 L72.4356124,12.5748161 C72.8505187,12.9284906 73.2655641,13.289036 73.6805785,13.6563644 C74.4741388,14.3587563 75.2697498,15.0930868 76.0666431,15.8529682 C77.2626226,14.7044589 78.4591157,13.6085843 79.6522764,12.5735207 C80.479466,11.8559175 81.3061123,11.166143 82.1308371,10.5049558 L82.9548703,9.85332565 C84.4642364,8.67624335 85.9656001,7.59609531 87.4504694,6.61755451 L88.2587112,6.09390982 C97.5335066,0.188524503 106.098542,-1.68547953 111.857872,1.62525067 Z M112.122648,89.4068746 C106.158384,90.7812529 99.5815179,91.7879557 92.6201763,92.4037299 C88.662369,98.1151048 84.6071608,103.257717 80.5496456,107.68133 C81.7620301,108.844404 82.97057,109.943345 84.1703948,110.972532 C85.3216808,111.960117 86.4637523,112.880251 87.5907462,113.73234 L88.2039397,114.190363 C88.9175052,114.716842 89.6245333,115.215722 90.323513,115.686848 L90.9206321,116.08387 C91.4165302,116.409051 91.9081016,116.720051 92.3947957,117.016812 L92.9764524,117.366088 L93.5532155,117.701673 C94.3188767,118.139984 95.0709243,118.54173 95.8071032,118.906683 L96.3562267,119.173495 L96.899188,119.426488 C102.02738,121.764214 106.292732,122.22827 108.879456,120.735755 C111.012022,119.505227 112.736786,116.432742 113.594426,111.824396 C114.548955,106.695836 114.343131,100.135408 112.902112,92.8792304 C112.677321,91.746563 112.416389,90.5880887 112.122648,89.4068746 Z M40.189291,89.6815462 C39.7845648,91.3076004 39.433409,92.8983935 39.1383869,94.447029 L38.9891849,95.2542177 L38.9891849,95.2542177 L38.8506096,96.0529529 L38.6624819,97.2347828 L38.6624819,97.2347828 L38.5500936,98.0115388 C38.4250123,98.9124659 38.3210065,99.7947524 38.2374553,100.657017 L38.1708349,101.391166 L38.1141461,102.115314 L38.0673022,102.829269 C37.9344591,105.073784 37.9483917,107.162066 38.0966844,109.066491 L38.1479654,109.661745 C38.6772899,115.257981 40.4040932,119.17333 42.9931543,120.661913 C45.1277711,121.888863 48.6590651,121.844149 53.0928549,120.28325 C58.0269778,118.54605 63.625733,115.09209 69.2126977,110.223892 C70.1226267,109.430795 71.0376826,108.589151 71.9563264,107.705093 C67.751685,103.207127 63.5793395,98.0701355 59.594875,92.4814046 C52.6168722,91.9174976 46.0881949,90.9818271 40.189291,89.6815462 Z M84.6925151,92.9270109 C81.8366187,93.053743 78.9350986,93.1196644 76.0000004,93.1196644 C73.1430786,93.1196644 70.3320385,93.0644741 67.5748253,92.9566497 C70.4150858,96.6878359 73.3232706,100.156614 76.2388888,103.292466 C79.057106,100.19954 81.8883947,96.725396 84.6925151,92.9270109 Z M76.0000004,40.7404871 C71.5615968,40.7404871 67.1700991,40.9088669 62.8875368,41.2315737 C60.4694324,44.7611637 58.1289921,48.4680764 55.9051767,52.312197 C53.6877691,56.1453308 51.6400441,60.022923 49.7802003,63.8833963 C51.4714335,67.3847871 53.3219651,70.9041273 55.3204334,74.4007192 L55.9244006,75.4489736 C58.1605195,79.3002488 60.5217215,83.0253026 62.9623821,86.5771214 C67.1598464,86.8487265 71.5187919,86.9874679 76.0000004,86.9874679 C80.4994073,86.9874679 84.913973,86.8305855 89.1870518,86.5260203 C91.5331309,83.0201918 93.8440946,79.3061251 96.0950796,75.4155021 C98.3429897,71.5294786 100.412502,67.6388551 102.282598,63.796268 C100.406862,60.0185789 98.332737,56.1667937 96.074831,52.278981 C93.8423006,48.4343493 91.5177518,44.7394456 89.1365567,41.2356619 C85.2444839,40.9397369 81.256662,40.7726219 77.214303,40.7446831 L76.0000004,40.7404871 Z M46.5180402,71.0938367 C44.6886983,75.4201016 43.1223386,79.6735459 41.8504883,83.7665313 C45.9579853,84.6577445 50.4051037,85.3685675 55.1218687,85.8931261 C53.7922371,83.8364311 52.4919826,81.7348713 51.2290146,79.5945607 L50.6006744,78.5212045 C49.1683691,76.0555503 47.8070638,73.5755876 46.5180402,71.0938367 Z M105.600379,70.8733332 C104.283417,73.4038868 102.890585,75.9433825 101.423676,78.479045 C99.973685,80.9853246 98.4980624,83.4218508 97.0032152,85.7832581 C101.752789,85.2150077 106.260654,84.4502712 110.435819,83.5008031 C109.147565,79.4775711 107.525071,75.2463558 105.600379,70.8733332 Z M35.9636314,45.7561126 C34.2450188,46.2428557 32.5889478,46.7610262 31.0069527,47.3108799 L30.6173776,47.4474601 L29.8476869,47.7243787 C29.5932359,47.8175057 29.3409042,47.911444 29.0907128,48.0061651 L28.34658,48.2926477 C27.6089094,48.5814213 26.8906876,48.8769817 26.1924756,49.1785567 L25.5009542,49.482108 L24.8228973,49.7894973 C24.3753753,49.9956647 23.9369127,50.2042765 23.5076756,50.4151037 L22.7137081,50.8129451 L22.7137081,50.8129451 L21.9416064,51.2156437 C21.5356931,51.431652 21.1392131,51.6495898 20.7523327,51.8692281 L20.1792325,52.1999324 C19.7076833,52.4765345 19.2512632,52.7556149 18.8102969,53.0367268 L18.2885758,53.3750076 L17.781815,53.7150669 C17.1161627,54.1695888 16.4907368,54.6283957 15.9068667,55.0896571 L15.4767765,55.4360347 C12.0283457,58.2680764 10.1513772,61.175027 10.1513772,63.7362229 C10.1513772,66.1924236 11.9545748,69.2194291 15.5261106,72.2684083 C19.5008349,75.6613011 25.2995184,78.7705801 32.3210954,81.162903 C33.4632487,81.5517867 34.6502577,81.9212512 35.875458,82.2723193 C37.6950599,76.3608829 40.0924028,70.1545883 42.9818763,63.8854399 C40.1293126,57.7080187 37.7655474,51.5990737 35.9636314,45.7561126 Z M116.114033,45.846818 C114.342619,51.5607475 111.978085,57.59815 109.105785,63.7661177 C112.115728,70.0845794 114.575356,76.2001679 116.397777,81.9514014 C117.221071,81.7079022 118.028986,81.4567372 118.816395,81.1968859 C119.244003,81.0556461 119.666683,80.9121603 120.084346,80.7665405 L120.912957,80.4724889 C123.515541,79.5325259 125.914508,78.5099643 128.087201,77.4332686 L128.765767,77.0914932 C137.041326,72.8548885 141.848367,67.8425769 141.848367,63.7362229 C141.848367,60.7146803 139.113987,57.1712314 134.21715,53.8355205 L133.702891,53.4912179 C132.659037,52.8042145 131.523461,52.1271806 130.301228,51.4665782 L129.682914,51.1376762 C129.161673,50.8647821 128.625534,50.5949277 128.074864,50.3285805 L127.238005,49.9317484 L127.238005,49.9317484 L126.379624,49.5405276 L125.677607,49.2318267 C125.205094,49.0273378 124.723609,48.8255124 124.23334,48.6265896 L123.491371,48.3304125 L122.736367,48.038769 L122.736367,48.038769 L121.968467,47.7518386 C121.452267,47.5621626 120.927564,47.3757483 120.394545,47.1928351 C119.016835,46.7198895 117.587093,46.2717281 116.114033,45.846818 Z M76.0000003,50.5714286 C83.100684,50.5714286 88.8571429,56.3276312 88.8571429,63.4285709 C88.8571429,70.5292544 83.100684,76.2857143 76.0000003,76.2857143 C68.8993166,76.2857143 63.1428571,70.5292544 63.1428571,63.4285709 C63.1428571,56.3276312 68.8993166,50.5714286 76.0000003,50.5714286 Z M97.0201321,42.0274817 C98.51139,44.3574608 99.974198,46.75285 101.399069,49.2062395 C102.853931,51.7114973 104.235486,54.2039796 105.541682,56.6760211 C107.362566,52.4261537 108.909445,48.2805334 110.150537,44.3155575 C106.016639,43.3750319 101.614634,42.6064633 97.0201321,42.0274817 Z M54.9903775,42.0167504 C50.4250965,42.5847451 46.0438519,43.3341505 41.9353297,44.2506584 C43.1871871,48.2718461 44.7197127,52.436374 46.5111197,56.6714223 C47.5825292,54.6018059 48.7027103,52.5353834 49.8700314,50.4802873 L50.5760679,49.2486539 C52.0032468,46.7812114 53.478101,44.3681921 54.9903775,42.0167504 Z M90.8586116,11.7294826 L90.252793,12.1335652 L89.6429307,12.5513768 L89.029251,12.9828855 C87.9008106,13.7865212 86.7542651,14.6590532 85.595889,15.5995999 L84.9629119,16.1193654 L84.3278146,16.6525896 L83.6908233,17.1992408 L83.6908233,17.1992408 C82.5904502,18.1540749 81.4854631,19.1658873 80.3789377,20.2270127 C84.4946369,24.6478153 88.594957,29.7541463 92.5517395,35.3709826 C99.343911,36.006176 105.831321,37.0287197 111.805583,38.4028426 C112.041909,37.4372772 112.259522,36.4844873 112.452786,35.5490718 C112.876941,33.4967023 113.20496,31.5125463 113.442216,29.610124 L113.538356,28.7998437 L113.582287,28.3985305 L113.582287,28.3985305 L113.661932,27.6037059 L113.730699,26.8194809 L113.730699,26.8194809 L113.78868,26.0460918 C113.81499,25.6621456 113.837291,25.2823517 113.855636,24.9068429 L113.887066,24.1615785 C114.201305,15.2879149 112.257051,8.93362271 108.785131,6.93777676 C105.299272,4.93396663 98.6063693,6.6319857 90.8586116,11.7294826 Z M42.897804,7.12020962 C40.3198466,8.60777315 38.6273814,12.6264521 38.1496961,18.3606677 L38.1039144,18.9705703 C38.0007481,20.5109914 37.9825079,22.1682352 38.0551948,23.9274384 L38.0891333,24.6365222 L38.132856,25.3562704 C38.1571777,25.7187753 38.1852004,26.0852001 38.2169722,26.4554258 L38.3235831,27.5773867 L38.3235831,27.5773867 L38.4072963,28.3376781 C38.4368978,28.5927215 38.4682011,28.8493662 38.5012205,29.1075768 L38.605441,29.8868715 C38.6783724,30.4094863 38.7582249,30.9382241 38.8451123,31.4728032 L38.9807339,32.2790174 C39.0746847,32.8193671 39.1757274,33.3654171 39.2839756,33.9168855 C39.567207,35.3602513 39.8991389,36.8365775 40.273876,38.3392211 C46.2342961,36.9932041 52.7170926,35.9880348 59.4895289,35.3622953 C63.4386212,29.8065254 67.5727751,24.7081152 71.7566549,20.2298233 C71.034094,19.5419953 70.3135838,18.877163 69.5958937,18.2419697 C69.259061,17.9438299 68.9227457,17.6510668 68.5870899,17.3637012 L67.9166996,16.7961726 L67.5094183,16.4576293 L67.5094183,16.4576293 L66.697321,15.7966305 C66.5622644,15.6882543 66.4273607,15.5807741 66.2926192,15.4741915 L65.4861943,14.8454763 L65.4861943,14.8454763 L64.6841212,14.2383671 C62.95134,12.9464184 61.252415,11.8070819 59.6082265,10.8234144 L58.8533329,10.3804786 C51.9704963,6.42176045 46.12491,5.25784242 42.897804,7.12020962 Z M76.0686933,24.6122996 C73.1869095,27.7118693 70.320761,31.1285247 67.5230493,34.806054 C70.3220426,34.6757448 73.1523065,34.6082906 76.0000004,34.6082906 C78.8748632,34.6082906 81.7261456,34.6772779 84.5425688,34.8098866 C81.7476764,31.0978638 78.9061344,27.6766093 76.0686933,24.6122996 Z" id="Shape" fill="#133B5C"></path>
                        <path d="M107.857872,1.62525067 C113.942004,5.12271732 116.684921,14.1536613 115.963332,25.9667208 L115.896219,26.9438655 L115.896219,26.9438655 L115.813488,27.9332004 C115.722943,28.9285172 115.608948,29.9416101 115.471434,30.9709515 L115.326079,32.0056524 L115.326079,32.0056524 L115.165029,33.0508461 L115.165029,33.0508461 L114.988269,34.1061931 L114.988269,34.1061931 L114.795785,35.1713539 C114.69561,35.7063312 114.589531,36.2448613 114.477542,36.7867534 C114.263773,37.820795 114.023347,38.8727222 113.761389,39.9384469 C115.355175,40.397084 116.90308,40.8820386 118.396902,41.3945879 C118.735002,41.5106109 119.070502,41.6280624 119.403355,41.7469144 L120.393926,42.1076437 L120.393926,42.1076437 L121.368335,42.476607 L121.368335,42.476607 L122.326302,42.8536355 L122.326302,42.8536355 L123.267546,43.2385604 C123.42301,43.3033632 123.577767,43.368488 123.731809,43.4339313 L124.647442,43.8303843 C125.705572,44.2973058 126.728127,44.7794876 127.713106,45.2757236 L128.548124,45.7044824 L128.548124,45.7044824 L129.364456,46.1399561 L129.364456,46.1399561 L130.161823,46.5819759 C138.827514,51.4795777 144,57.5346564 144,63.7362229 C144,67.7741198 141.84509,71.7717759 137.9822,75.4450907 L137.432153,75.9555127 C135.28149,77.9038421 132.64812,79.7555968 129.600438,81.4673008 L128.796037,81.9106267 L128.796037,81.9106267 L127.973109,82.3474272 C127.834425,82.4196739 127.694981,82.4916417 127.554782,82.5633268 L126.704569,82.9900175 L126.704569,82.9900175 L125.836504,83.4097541 L125.836504,83.4097541 L124.950856,83.8223649 C124.056508,84.2313556 123.136189,84.6294005 122.191116,85.0157277 L121.237837,85.3981203 C119.795674,85.9657647 118.298724,86.5064654 116.751084,87.0176175 C115.878833,87.3058307 114.984283,87.5830567 114.073072,87.8515967 C114.39834,89.154688 114.687979,90.4350396 114.936864,91.6883074 L115.139112,92.7428862 C115.268616,93.4431548 115.387469,94.1377744 115.495717,94.8262591 L115.65014,95.8543241 C115.674553,96.0248812 115.698305,96.1950396 115.721396,96.3647918 L115.852018,97.3783698 C115.872468,97.5464668 115.892259,97.7141424 115.911392,97.8813889 L116.018287,98.8796597 L116.018287,98.8796597 L116.109406,99.86727 C116.12328,100.030963 116.136498,100.194197 116.14906,100.356964 L116.216577,101.3279 C116.395572,104.223533 116.362707,106.962948 116.12201,109.501858 L116.034085,110.340674 C115.173588,117.822093 112.446627,123.454675 107.961937,126.04266 C101.156045,129.97028 90.5324044,126.812029 79.4517859,118.298551 L78.6302141,117.658154 C77.8079077,117.008015 76.9835492,116.328727 76.1585045,115.620992 C74.8661482,114.512086 73.5668728,113.32985 72.2655454,112.080671 C71.2615479,113.048025 70.2593444,113.97092 69.2607288,114.841181 L68.436302,115.550023 L68.436302,115.550023 L67.6112534,116.240442 C66.6484681,117.035123 65.6851163,117.791868 64.7236581,118.509544 L63.9000722,119.1151 L63.9000722,119.1151 L63.077758,119.701362 C52.5343584,127.100576 42.3901682,129.694133 35.9193881,125.974439 C30.0323093,122.589644 27.3205652,114.100157 27.8963952,102.936366 L27.9538058,101.972977 C27.9756282,101.649702 28.0001369,101.3243 28.0273346,100.996829 L28.1169972,100.008263 C28.214732,99.0136013 28.336691,98.000822 28.482945,96.9714558 L28.6372999,95.9366173 C28.6914528,95.589866 28.7483076,95.2413283 28.8078672,94.891061 L28.9946626,93.8351269 C29.0271483,93.658292 29.0603109,93.4810388 29.0941507,93.3033745 C29.4117288,91.6351614 29.7900543,89.92479 30.225026,88.179413 C28.8849951,87.7961509 27.5846936,87.3924482 26.3315546,86.9654936 C23.7976051,86.1021343 21.401856,85.1493334 19.1647251,84.1214724 L18.2783808,83.7063589 C17.6931889,83.4269933 17.1194701,83.1424264 16.5576116,82.8529309 L15.7237675,82.4150255 C15.5862922,82.3414365 15.4495702,82.2675481 15.3136077,82.1933644 L14.5069937,81.7447532 C14.2411924,81.5940579 13.9784771,81.4422157 13.7188962,81.2892607 L12.9496056,80.8270912 C4.84517397,75.8624007 0,69.7930937 0,63.7362229 C0,57.5154079 5.07860541,51.4559882 13.6432723,46.5736324 L14.4437118,46.1263262 L14.4437118,46.1263262 L15.2636754,45.6858837 C15.6784919,45.467408 16.1005255,45.2515728 16.5296197,45.038478 L17.3971758,44.6159717 C17.6894683,44.4763739 17.9848525,44.3380237 18.2832819,44.2009505 L19.1876595,43.793592 C19.3398963,43.7263474 19.4928828,43.6594294 19.6466132,43.5928417 L20.5778762,43.1973101 C20.8912419,43.0668074 21.2075369,42.9376558 21.5267149,42.8098849 L22.4928509,42.4307436 C22.6552995,42.3682536 22.8184573,42.3061162 22.9823184,42.244335 L23.9738785,41.8779526 L23.9738785,41.8779526 L24.98204,41.520298 L24.98204,41.520298 C26.6860425,40.9282855 28.4669404,40.3717887 30.3116615,39.8497855 C29.9084732,38.2359959 29.5519348,36.648779 29.2469163,35.0945228 C29.1774963,34.7408658 29.1106757,34.38877 29.0464532,34.0382917 L28.8615795,32.9917655 C28.832066,32.8181719 28.8032017,32.6449968 28.7749867,32.4722471 L28.6134852,31.4409107 C28.5366284,30.9278514 28.4656116,30.4187477 28.4004315,29.9137894 L28.2778523,28.9094561 L28.2778523,28.9094561 L28.170831,27.9165143 L28.170831,27.9165143 L28.0793613,26.9353016 C28.0375133,26.4476836 28.0014949,25.9645905 27.9713024,25.4862121 L27.9186842,24.5357976 C27.395408,13.5222785 30.0427641,5.14448279 35.8158356,1.81304921 C40.7283212,-1.0218494 47.6923806,-0.16658471 55.4127816,3.70932844 L56.200464,4.11387606 C57.5174454,4.80539022 58.8548932,5.58302771 60.2065008,6.44352862 L61.0191141,6.9697467 L61.0191141,6.9697467 L61.834823,7.51569553 L61.834823,7.51569553 L62.6533249,8.08121864 C63.4731224,8.65647672 64.2966552,9.26086149 65.1225611,9.89366883 L65.9492076,10.5359243 L65.9492076,10.5359243 L66.7771335,11.1969716 L66.7771335,11.1969716 L67.606036,11.8766544 L67.606036,11.8766544 L68.4356124,12.5748161 C68.8505187,12.9284906 69.2655641,13.289036 69.6805785,13.6563644 C70.4741388,14.3587563 71.2697498,15.0930868 72.0666431,15.8529682 C73.2626226,14.7044589 74.4591157,13.6085843 75.6522764,12.5735207 C76.479466,11.8559175 77.3061123,11.166143 78.1308371,10.5049558 L78.9548703,9.85332565 C80.4642364,8.67624335 81.9656001,7.59609531 83.4504694,6.61755451 L84.2587112,6.09390982 C93.5335066,0.188524503 102.098542,-1.68547953 107.857872,1.62525067 Z M108.122648,89.4068746 C102.158384,90.7812529 95.5815179,91.7879557 88.6201763,92.4037299 C84.662369,98.1151048 80.6071608,103.257717 76.5496456,107.68133 C77.7620301,108.844404 78.97057,109.943345 80.1703948,110.972532 C81.3216808,111.960117 82.4637523,112.880251 83.5907462,113.73234 L84.2039397,114.190363 C84.9175052,114.716842 85.6245333,115.215722 86.323513,115.686848 L86.9206321,116.08387 C87.4165302,116.409051 87.9081016,116.720051 88.3947957,117.016812 L88.9764524,117.366088 L89.5532155,117.701673 C90.3188767,118.139984 91.0709243,118.54173 91.8071032,118.906683 L92.3562267,119.173495 L92.899188,119.426488 C98.0273796,121.764214 102.292732,122.22827 104.879456,120.735755 C107.012022,119.505227 108.736786,116.432742 109.594426,111.824396 C110.548955,106.695836 110.343131,100.135408 108.902112,92.8792304 C108.677321,91.746563 108.416389,90.5880887 108.122648,89.4068746 Z M36.189291,89.6815462 C35.7845648,91.3076004 35.433409,92.8983935 35.1383869,94.447029 L34.9891849,95.2542177 L34.9891849,95.2542177 L34.8506096,96.0529529 L34.6624819,97.2347828 L34.6624819,97.2347828 L34.5500936,98.0115388 C34.4250123,98.9124659 34.3210065,99.7947524 34.2374553,100.657017 L34.1708349,101.391166 L34.1141461,102.115314 L34.0673022,102.829269 C33.9344591,105.073784 33.9483917,107.162066 34.0966844,109.066491 L34.1479654,109.661745 C34.6772899,115.257981 36.4040932,119.17333 38.9931543,120.661913 C41.1277711,121.888863 44.6590651,121.844149 49.0928549,120.28325 C54.0269778,118.54605 59.625733,115.09209 65.2126977,110.223892 C66.1226267,109.430795 67.0376826,108.589151 67.9563264,107.705093 C63.751685,103.207127 59.5793395,98.0701355 55.594875,92.4814046 C48.6168722,91.9174976 42.0881949,90.9818271 36.189291,89.6815462 Z M80.6925151,92.9270109 C77.8366187,93.053743 74.9350986,93.1196644 72.0000004,93.1196644 C69.1430786,93.1196644 66.3320385,93.0644741 63.5748253,92.9566497 C66.4150858,96.6878359 69.3232706,100.156614 72.2388888,103.292466 C75.057106,100.19954 77.8883947,96.725396 80.6925151,92.9270109 Z M72.0000004,40.7404871 C67.5615968,40.7404871 63.1700991,40.9088669 58.8875368,41.2315737 C56.4694324,44.7611637 54.1289921,48.4680764 51.9051767,52.312197 C49.6877691,56.1453308 47.6400441,60.022923 45.7802003,63.8833963 C47.4714335,67.3847871 49.3219651,70.9041273 51.3204334,74.4007192 L51.9244006,75.4489736 C54.1605195,79.3002488 56.5217215,83.0253026 58.9623821,86.5771214 C63.1598464,86.8487265 67.5187919,86.9874679 72.0000004,86.9874679 C76.4994073,86.9874679 80.913973,86.8305855 85.1870518,86.5260203 C87.5331309,83.0201918 89.8440946,79.3061251 92.0950796,75.4155021 C94.3429897,71.5294786 96.4125018,67.6388551 98.2825979,63.796268 C96.4068624,60.0185789 94.332737,56.1667937 92.074831,52.278981 C89.8423006,48.4343493 87.5177518,44.7394456 85.1365567,41.2356619 C81.2444839,40.9397369 77.256662,40.7726219 73.214303,40.7446831 L72.0000004,40.7404871 Z M42.5180402,71.0938367 C40.6886983,75.4201016 39.1223386,79.6735459 37.8504883,83.7665313 C41.9579853,84.6577445 46.4051037,85.3685675 51.1218687,85.8931261 C49.7922371,83.8364311 48.4919826,81.7348713 47.2290146,79.5945607 L46.6006744,78.5212045 C45.1683691,76.0555503 43.8070638,73.5755876 42.5180402,71.0938367 Z M101.600379,70.8733332 C100.283417,73.4038868 98.8905848,75.9433825 97.4236758,78.479045 C95.973685,80.9853246 94.4980624,83.4218508 93.0032152,85.7832581 C97.7527887,85.2150077 102.260654,84.4502712 106.435819,83.5008031 C105.147565,79.4775711 103.525071,75.2463558 101.600379,70.8733332 Z M31.9636314,45.7561126 C30.2450188,46.2428557 28.5889478,46.7610262 27.0069527,47.3108799 L26.6173776,47.4474601 L25.8476869,47.7243787 C25.5932359,47.8175057 25.3409042,47.911444 25.0907128,48.0061651 L24.34658,48.2926477 C23.6089094,48.5814213 22.8906876,48.8769817 22.1924756,49.1785567 L21.5009542,49.482108 L20.8228973,49.7894973 C20.3753753,49.9956647 19.9369127,50.2042765 19.5076756,50.4151037 L18.7137081,50.8129451 L18.7137081,50.8129451 L17.9416064,51.2156437 C17.5356931,51.431652 17.1392131,51.6495898 16.7523327,51.8692281 L16.1792325,52.1999324 C15.7076833,52.4765345 15.2512632,52.7556149 14.8102969,53.0367268 L14.2885758,53.3750076 L13.781815,53.7150669 C13.1161627,54.1695888 12.4907368,54.6283957 11.9068667,55.0896571 L11.4767765,55.4360347 C8.02834566,58.2680764 6.1513772,61.175027 6.1513772,63.7362229 C6.1513772,66.1924236 7.95457484,69.2194291 11.5261106,72.2684083 C15.5008349,75.6613011 21.2995184,78.7705801 28.3210954,81.162903 C29.4632487,81.5517867 30.6502577,81.9212512 31.875458,82.2723193 C33.6950599,76.3608829 36.0924028,70.1545883 38.9818763,63.8854399 C36.1293126,57.7080187 33.7655474,51.5990737 31.9636314,45.7561126 Z M112.114033,45.846818 C110.342619,51.5607475 107.978085,57.59815 105.105785,63.7661177 C108.115728,70.0845794 110.575356,76.2001679 112.397777,81.9514014 C113.221071,81.7079022 114.028986,81.4567372 114.816395,81.1968859 C115.244003,81.0556461 115.666683,80.9121603 116.084346,80.7665405 L116.912957,80.4724889 C119.515541,79.5325259 121.914508,78.5099643 124.087201,77.4332686 L124.765767,77.0914932 C133.041326,72.8548885 137.848367,67.8425769 137.848367,63.7362229 C137.848367,60.7146803 135.113987,57.1712314 130.21715,53.8355205 L129.702891,53.4912179 C128.659037,52.8042145 127.523461,52.1271806 126.301228,51.4665782 L125.682914,51.1376762 C125.161673,50.8647821 124.625534,50.5949277 124.074864,50.3285805 L123.238005,49.9317484 L123.238005,49.9317484 L122.379624,49.5405276 L121.677607,49.2318267 C121.205094,49.0273378 120.723609,48.8255124 120.23334,48.6265896 L119.491371,48.3304125 L118.736367,48.038769 L118.736367,48.038769 L117.968467,47.7518386 C117.452267,47.5621626 116.927564,47.3757483 116.394545,47.1928351 C115.016835,46.7198895 113.587093,46.2717281 112.114033,45.846818 Z M72.0000003,50.5714286 C79.100684,50.5714286 84.8571429,56.3276312 84.8571429,63.4285709 C84.8571429,70.5292544 79.100684,76.2857143 72.0000003,76.2857143 C64.8993166,76.2857143 59.1428571,70.5292544 59.1428571,63.4285709 C59.1428571,56.3276312 64.8993166,50.5714286 72.0000003,50.5714286 Z M93.0201321,42.0274817 C94.51139,44.3574608 95.974198,46.75285 97.3990694,49.2062395 C98.853931,51.7114973 100.235486,54.2039796 101.541682,56.6760211 C103.362566,52.4261537 104.909445,48.2805334 106.150537,44.3155575 C102.016639,43.3750319 97.6146336,42.6064633 93.0201321,42.0274817 Z M50.9903775,42.0167504 C46.4250965,42.5847451 42.0438519,43.3341505 37.9353297,44.2506584 C39.1871871,48.2718461 40.7197127,52.436374 42.5111197,56.6714223 C43.5825292,54.6018059 44.7027103,52.5353834 45.8700314,50.4802873 L46.5760679,49.2486539 C48.0032468,46.7812114 49.478101,44.3681921 50.9903775,42.0167504 Z M86.8586116,11.7294826 L86.252793,12.1335652 L85.6429307,12.5513768 L85.029251,12.9828855 C83.9008106,13.7865212 82.7542651,14.6590532 81.595889,15.5995999 L80.9629119,16.1193654 L80.3278146,16.6525896 L79.6908233,17.1992408 L79.6908233,17.1992408 C78.5904502,18.1540749 77.4854631,19.1658873 76.3789377,20.2270127 C80.4946369,24.6478153 84.594957,29.7541463 88.5517395,35.3709826 C95.343911,36.006176 101.831321,37.0287197 107.805583,38.4028426 C108.041909,37.4372772 108.259522,36.4844873 108.452786,35.5490718 C108.876941,33.4967023 109.20496,31.5125463 109.442216,29.610124 L109.538356,28.7998437 L109.582287,28.3985305 L109.582287,28.3985305 L109.661932,27.6037059 L109.730699,26.8194809 L109.730699,26.8194809 L109.78868,26.0460918 C109.81499,25.6621456 109.837291,25.2823517 109.855636,24.9068429 L109.887066,24.1615785 C110.201305,15.2879149 108.257051,8.93362271 104.785131,6.93777676 C101.299272,4.93396663 94.6063693,6.6319857 86.8586116,11.7294826 Z M38.897804,7.12020962 C36.3198466,8.60777315 34.6273814,12.6264521 34.1496961,18.3606677 L34.1039144,18.9705703 C34.0007481,20.5109914 33.9825079,22.1682352 34.0551948,23.9274384 L34.0891333,24.6365222 L34.132856,25.3562704 C34.1571777,25.7187753 34.1852004,26.0852001 34.2169722,26.4554258 L34.3235831,27.5773867 L34.3235831,27.5773867 L34.4072963,28.3376781 C34.4368978,28.5927215 34.4682011,28.8493662 34.5012205,29.1075768 L34.605441,29.8868715 C34.6783724,30.4094863 34.7582249,30.9382241 34.8451123,31.4728032 L34.9807339,32.2790174 C35.0746847,32.8193671 35.1757274,33.3654171 35.2839756,33.9168855 C35.567207,35.3602513 35.8991389,36.8365775 36.273876,38.3392211 C42.2342961,36.9932041 48.7170926,35.9880348 55.4895289,35.3622953 C59.4386212,29.8065254 63.5727751,24.7081152 67.7566549,20.2298233 C67.034094,19.5419953 66.3135838,18.877163 65.5958937,18.2419697 C65.259061,17.9438299 64.9227457,17.6510668 64.5870899,17.3637012 L63.9166996,16.7961726 L63.5094183,16.4576293 L63.5094183,16.4576293 L62.697321,15.7966305 C62.5622644,15.6882543 62.4273607,15.5807741 62.2926192,15.4741915 L61.4861943,14.8454763 L61.4861943,14.8454763 L60.6841212,14.2383671 C58.95134,12.9464184 57.252415,11.8070819 55.6082265,10.8234144 L54.8533329,10.3804786 C47.9704963,6.42176045 42.12491,5.25784242 38.897804,7.12020962 Z M72.0686933,24.6122996 C69.1869095,27.7118693 66.320761,31.1285247 63.5230493,34.806054 C66.3220426,34.6757448 69.1523065,34.6082906 72.0000004,34.6082906 C74.8748632,34.6082906 77.7261456,34.6772779 80.5425688,34.8098866 C77.7476764,31.0978638 74.9061344,27.6766093 72.0686933,24.6122996 Z" id="Shape-Copy" fill="#53C1DE"></path>
                    </g>
                </g>
                <g id="top-compartment" transform="translate(40.000000, 144.000000)">
                    <rect id="Rectangle-Copy-4" fill="#133B5C" x="40" y="0" width="296" height="104" rx="32"></rect>
                    <rect id="Rectangle-Copy-5" fill="#1D2D50" x="8" y="0" width="296" height="104" rx="32"></rect>
                    <g id="shade" transform="translate(8.000000, 35.500000)">
                        <mask id="mask-14" fill="white">
                            <use xlink:href="#path-13"></use>
                        </mask>
                        <use id="Mask" fill="#1E5F74" xlink:href="#path-13"></use>
                        <polygon fill-opacity="0.12" fill="#1D2D50" mask="url(#mask-14)" points="296 0 295.5 68.5 147.5 68.5 5 40 227 0"></polygon>
                    </g>
                    <g id="shade">
                        <mask id="mask-16" fill="white">
                            <use xlink:href="#path-15"></use>
                        </mask>
                        <use id="Mask" fill="#1E5F74" xlink:href="#path-15"></use>
                        <polygon fill-opacity="0.12" fill="#1D2D50" mask="url(#mask-16)" points="276 39.5 264.5 63.5 301.5 69 287.5 80.5 26 40.5 17.5 62.5 246 104 326.5 89.5 323.5 61.5 319.5 45.5"></polygon>
                    </g>
                    <g id="button" transform="translate(256.000000, 39.500000)">
                        <path d="M12,0 L16,0 C22.627417,-1.21743675e-15 28,5.372583 28,12 C28,18.627417 22.627417,24 16,24 L12,24 L12,24 L12,0 Z" id="Rectangle" fill="#1D2D50"></path>
                        <rect id="Rectangle-Copy-17" fill="#133B5C" x="0" y="0" width="24" height="24" rx="12"></rect>
                    </g>
                    <g id="button" transform="translate(8.000000, 39.500000)">
                        <path d="M12,0 L16,0 C22.627417,-1.21743675e-15 28,5.372583 28,12 C28,18.627417 22.627417,24 16,24 L12,24 L12,24 L12,0 Z" id="Rectangle" fill="#1D2D50"></path>
                        <rect id="Rectangle-Copy-17" fill="#133B5C" x="0" y="0" width="24" height="24" rx="12"></rect>
                    </g>
                </g>
                <g id="side-pocket" transform="translate(447.000000, 444.000000)">
                    <path d="M32,0 L48,0 C65.673112,-3.24649801e-15 80,14.326888 80,32 L80,148 L80,148 L32,148 C14.326888,148 2.164332e-15,133.673112 0,116 L0,32 C-2.164332e-15,14.326888 14.326888,3.24649801e-15 32,0 Z" id="Rectangle-Copy-6" fill="#1E5F74"></path>
                    <rect id="Rectangle-Copy-7" fill="#133B5C" x="32" y="0" width="80" height="148" rx="32"></rect>
                    <g id="zipper" transform="translate(12.000000, 0.000000)" stroke="#E3B688">
                        <path d="M3,59 C3,53 3,44 3,32 C3,14.326888 17.326888,0 35,0 L51,0" id="Path"></path>
                        <line x1="0.5" y1="58.5" x2="5.5" y2="58.5" id="Line" stroke-linecap="square"></line>
                        <line x1="0.5" y1="54.5" x2="5.5" y2="54.5" id="Line-Copy" stroke-linecap="square"></line>
                        <line x1="0.5" y1="50.5" x2="5.5" y2="50.5" id="Line-Copy-2" stroke-linecap="square"></line>
                        <line x1="0.5" y1="46.5" x2="5.5" y2="46.5" id="Line-Copy-3" stroke-linecap="square"></line>
                        <line x1="0.5" y1="42.5" x2="5.5" y2="42.5" id="Line-Copy-4" stroke-linecap="square"></line>
                        <line x1="0.5" y1="38.5" x2="5.5" y2="38.5" id="Line-Copy-5" stroke-linecap="square"></line>
                        <line x1="0.5" y1="34.5" x2="5.5" y2="34.5" id="Line-Copy-6" stroke-linecap="square"></line>
                        <line x1="0.5" y1="30.5" x2="5.5" y2="30.5" id="Line-Copy-7" stroke-linecap="square"></line>
                        <line x1="0.5" y1="26.5" x2="5.5" y2="26.5" id="Line-Copy-8" stroke-linecap="square"></line>
                        <line x1="1.5" y1="22.5" x2="6.5" y2="22.5" id="Line-Copy-9" stroke-linecap="square"></line>
                        <line x1="3.5" y1="18.5" x2="8.5" y2="18.5" id="Line-Copy-10" stroke-linecap="square"></line>
                        <line x1="5.5" y1="14.5" x2="10.5" y2="14.5" id="Line-Copy-11" stroke-linecap="square"></line>
                        <line x1="8.5" y1="11.5" x2="13.5" y2="11.5" id="Line-Copy-12" stroke-linecap="square"></line>
                        <line x1="11.5" y1="8.5" x2="16.5" y2="8.5" id="Line-Copy-13" stroke-linecap="square"></line>
                        <line x1="14.5" y1="5.5" x2="19.5" y2="5.5" id="Line-Copy-14" stroke-linecap="square"></line>
                        <line x1="18.5" y1="3.5" x2="23.5" y2="3.5" id="Line-Copy-15" stroke-linecap="square"></line>
                        <line x1="22.5" y1="1.5" x2="27.5" y2="1.5" id="Line-Copy-16" stroke-linecap="square"></line>
                    </g>
                    <g id="zipper-handle" transform="translate(11.000000, 57.000000)">
                        <path d="M2,5 L4,5 C5.1045695,5 6,5.8954305 6,7 L6,13 C6,14.1045695 5.1045695,15 4,15 L2,15 L2,15 L2,5 Z" id="Rectangle" fill="#212121"></path>
                        <rect id="Rectangle-Copy-13" fill="#616161" x="0" y="5" width="4" height="10" rx="2"></rect>
                        <path d="M2,0 L4,0 C5.1045695,-2.02906125e-16 6,0.8954305 6,2 C6,3.1045695 5.1045695,4 4,4 L2,4 L2,4 L2,0 Z" id="Rectangle" fill="#212121"></path>
                        <rect id="Rectangle-Copy-8" fill="#616161" x="0" y="0" width="4" height="4" rx="2"></rect>
                    </g>
                </g>
            </g>
        </g>
    </g>
</svg>